<mxfile host="app.diagrams.net" agent="Mozilla/5.0 (Windows NT 10.0; Win64; x64) AppleWebKit/537.36 (KHTML, like Gecko) Chrome/130.0.0.0 Safari/537.36" version="24.8.0">
  <diagram id="C5RBs43oDa-KdzZeNtuy" name="Page-1">
    <mxGraphModel dx="1838" dy="962" grid="1" gridSize="10" guides="1" tooltips="1" connect="1" arrows="1" fold="1" page="1" pageScale="1" pageWidth="827" pageHeight="1169" math="0" shadow="0">
      <root>
        <mxCell id="WIyWlLk6GJQsqaUBKTNV-0" />
        <mxCell id="WIyWlLk6GJQsqaUBKTNV-1" parent="WIyWlLk6GJQsqaUBKTNV-0" />
        <mxCell id="8AXX_aWarYT_waoaCrcT-0" value="Entity" style="swimlane;fontStyle=1;align=center;verticalAlign=top;childLayout=stackLayout;horizontal=1;startSize=26;horizontalStack=0;resizeParent=1;resizeParentMax=0;resizeLast=0;collapsible=1;marginBottom=0;whiteSpace=wrap;html=1;" parent="WIyWlLk6GJQsqaUBKTNV-1" vertex="1">
          <mxGeometry x="230" y="60" width="260" height="290" as="geometry" />
        </mxCell>
        <mxCell id="8AXX_aWarYT_waoaCrcT-1" value="# id: String&lt;div&gt;# name: String&lt;/div&gt;&lt;div&gt;# description: String&lt;br&gt;&lt;div&gt;# interactable: boolean&lt;/div&gt;&lt;/div&gt;" style="text;strokeColor=none;fillColor=none;align=left;verticalAlign=top;spacingLeft=4;spacingRight=4;overflow=hidden;rotatable=0;points=[[0,0.5],[1,0.5]];portConstraint=eastwest;whiteSpace=wrap;html=1;" parent="8AXX_aWarYT_waoaCrcT-0" vertex="1">
          <mxGeometry y="26" width="260" height="80" as="geometry" />
        </mxCell>
        <mxCell id="8AXX_aWarYT_waoaCrcT-2" value="" style="line;strokeWidth=1;fillColor=none;align=left;verticalAlign=middle;spacingTop=-1;spacingLeft=3;spacingRight=3;rotatable=0;labelPosition=right;points=[];portConstraint=eastwest;strokeColor=inherit;" parent="8AXX_aWarYT_waoaCrcT-0" vertex="1">
          <mxGeometry y="106" width="260" height="8" as="geometry" />
        </mxCell>
        <mxCell id="8AXX_aWarYT_waoaCrcT-3" value="+ Entity(id:String, name: String, description: String, interactable: boolean)&lt;div&gt;+&lt;u&gt;generateId&lt;/u&gt;(): void&lt;/div&gt;&lt;div&gt;+setName(): void&lt;/div&gt;&lt;div&gt;+setDescription(): void&lt;/div&gt;&lt;div&gt;+setInteractable() : void&lt;br&gt;&lt;div&gt;+ getInteract(): boolean&lt;/div&gt;&lt;div&gt;+ getString(): String&lt;/div&gt;&lt;div&gt;+ &amp;lt;&amp;lt;abstract&amp;gt;&amp;gt;update(): void&lt;/div&gt;&lt;div&gt;+&amp;lt;&amp;lt;abstract&amp;gt;&amp;gt;render(): void&lt;/div&gt;&lt;div&gt;+&amp;lt;&amp;lt;abstract&amp;gt;&amp;gt; interactWith(): void&lt;/div&gt;&lt;/div&gt;&lt;div&gt;&lt;br&gt;&lt;/div&gt;" style="text;strokeColor=none;fillColor=none;align=left;verticalAlign=top;spacingLeft=4;spacingRight=4;overflow=hidden;rotatable=0;points=[[0,0.5],[1,0.5]];portConstraint=eastwest;whiteSpace=wrap;html=1;" parent="8AXX_aWarYT_waoaCrcT-0" vertex="1">
          <mxGeometry y="114" width="260" height="176" as="geometry" />
        </mxCell>
        <mxCell id="8AXX_aWarYT_waoaCrcT-4" value="Sim" style="swimlane;fontStyle=1;align=center;verticalAlign=top;childLayout=stackLayout;horizontal=1;startSize=26;horizontalStack=0;resizeParent=1;resizeParentMax=0;resizeLast=0;collapsible=1;marginBottom=0;whiteSpace=wrap;html=1;" parent="WIyWlLk6GJQsqaUBKTNV-1" vertex="1">
          <mxGeometry x="10" y="500" width="160" height="160" as="geometry" />
        </mxCell>
        <mxCell id="8AXX_aWarYT_waoaCrcT-5" value="&lt;div&gt;-health: Enum&lt;/div&gt;&lt;div&gt;&lt;br&gt;&lt;/div&gt;" style="text;strokeColor=none;fillColor=none;align=left;verticalAlign=top;spacingLeft=4;spacingRight=4;overflow=hidden;rotatable=0;points=[[0,0.5],[1,0.5]];portConstraint=eastwest;whiteSpace=wrap;html=1;" parent="8AXX_aWarYT_waoaCrcT-4" vertex="1">
          <mxGeometry y="26" width="160" height="84" as="geometry" />
        </mxCell>
        <mxCell id="8AXX_aWarYT_waoaCrcT-6" value="" style="line;strokeWidth=1;fillColor=none;align=left;verticalAlign=middle;spacingTop=-1;spacingLeft=3;spacingRight=3;rotatable=0;labelPosition=right;points=[];portConstraint=eastwest;strokeColor=inherit;" parent="8AXX_aWarYT_waoaCrcT-4" vertex="1">
          <mxGeometry y="110" width="160" height="8" as="geometry" />
        </mxCell>
        <mxCell id="8AXX_aWarYT_waoaCrcT-7" value="+ use(Item): void" style="text;strokeColor=none;fillColor=none;align=left;verticalAlign=top;spacingLeft=4;spacingRight=4;overflow=hidden;rotatable=0;points=[[0,0.5],[1,0.5]];portConstraint=eastwest;whiteSpace=wrap;html=1;" parent="8AXX_aWarYT_waoaCrcT-4" vertex="1">
          <mxGeometry y="118" width="160" height="42" as="geometry" />
        </mxCell>
        <mxCell id="8AXX_aWarYT_waoaCrcT-21" value="&lt;p style=&quot;margin:0px;margin-top:4px;text-align:center;&quot;&gt;&lt;b&gt;Item&lt;/b&gt;&lt;/p&gt;&lt;hr size=&quot;1&quot; style=&quot;border-style:solid;&quot;&gt;&lt;p style=&quot;margin:0px;margin-left:4px;&quot;&gt;- category: Enum&lt;/p&gt;" style="verticalAlign=top;align=left;overflow=fill;html=1;whiteSpace=wrap;" parent="WIyWlLk6GJQsqaUBKTNV-1" vertex="1">
          <mxGeometry x="800" y="500" width="160" height="90" as="geometry" />
        </mxCell>
        <mxCell id="8AXX_aWarYT_waoaCrcT-22" value="&lt;p style=&quot;margin:0px;margin-top:4px;text-align:center;&quot;&gt;&lt;b&gt;Inventory&lt;/b&gt;&lt;/p&gt;&lt;hr size=&quot;1&quot; style=&quot;border-style:solid;&quot;&gt;&lt;p style=&quot;margin:0px;margin-left:4px;&quot;&gt;- item: HashMap&amp;lt;Item,Integer&amp;gt;&lt;/p&gt;&lt;hr size=&quot;1&quot; style=&quot;border-style:solid;&quot;&gt;&lt;p style=&quot;margin:0px;margin-left:4px;&quot;&gt;+Inventory(ArrayList&amp;lt;Item&amp;gt;)&lt;br&gt;+ addToInventory(Item item): void&lt;br&gt;+removeFromInventory(Item item): void&lt;br&gt;&lt;br&gt;&lt;/p&gt;" style="verticalAlign=top;align=left;overflow=fill;html=1;whiteSpace=wrap;" parent="WIyWlLk6GJQsqaUBKTNV-1" vertex="1">
          <mxGeometry x="504" y="500" width="160" height="160" as="geometry" />
        </mxCell>
        <mxCell id="8AXX_aWarYT_waoaCrcT-23" value="&lt;p style=&quot;margin:0px;margin-top:4px;text-align:center;&quot;&gt;&lt;b&gt;Player&lt;/b&gt;&lt;/p&gt;&lt;hr size=&quot;1&quot; style=&quot;border-style:solid;&quot;&gt;&lt;p style=&quot;margin:0px;margin-left:4px;&quot;&gt;- inventory: Inventory&lt;/p&gt;&lt;hr size=&quot;1&quot; style=&quot;border-style:solid;&quot;&gt;&lt;p style=&quot;margin:0px;margin-left:4px;&quot;&gt;+ collectItem(Item): boolean&lt;/p&gt;&lt;p style=&quot;margin:0px;margin-left:4px;&quot;&gt;+ dropItem(Item): boolean&lt;/p&gt;" style="verticalAlign=top;align=left;overflow=fill;html=1;whiteSpace=wrap;" parent="WIyWlLk6GJQsqaUBKTNV-1" vertex="1">
          <mxGeometry x="210" y="500" width="160" height="150" as="geometry" />
        </mxCell>
        <mxCell id="8AXX_aWarYT_waoaCrcT-29" value="" style="endArrow=diamondThin;endFill=0;endSize=24;html=1;rounded=0;exitX=1;exitY=0.25;exitDx=0;exitDy=0;entryX=0;entryY=0.25;entryDx=0;entryDy=0;" parent="WIyWlLk6GJQsqaUBKTNV-1" source="8AXX_aWarYT_waoaCrcT-22" target="8AXX_aWarYT_waoaCrcT-21" edge="1">
          <mxGeometry width="160" relative="1" as="geometry">
            <mxPoint x="650" y="630" as="sourcePoint" />
            <mxPoint x="809.1999999999998" y="580.76" as="targetPoint" />
          </mxGeometry>
        </mxCell>
        <mxCell id="8AXX_aWarYT_waoaCrcT-34" value="" style="endArrow=diamondThin;endFill=1;endSize=24;html=1;rounded=0;entryX=-0.003;entryY=0.329;entryDx=0;entryDy=0;entryPerimeter=0;exitX=1.005;exitY=0.371;exitDx=0;exitDy=0;exitPerimeter=0;" parent="WIyWlLk6GJQsqaUBKTNV-1" source="8AXX_aWarYT_waoaCrcT-23" target="8AXX_aWarYT_waoaCrcT-22" edge="1">
          <mxGeometry width="160" relative="1" as="geometry">
            <mxPoint x="420" y="610" as="sourcePoint" />
            <mxPoint x="540" y="610" as="targetPoint" />
          </mxGeometry>
        </mxCell>
        <mxCell id="8AXX_aWarYT_waoaCrcT-36" value="&lt;p style=&quot;margin:0px;margin-top:4px;text-align:center;&quot;&gt;&lt;b&gt;Lot&lt;/b&gt;&lt;/p&gt;&lt;hr size=&quot;1&quot; style=&quot;border-style:solid;&quot;&gt;&lt;p style=&quot;margin:0px;margin-left:4px;&quot;&gt;+ PropertyType: Enum&lt;/p&gt;&lt;hr size=&quot;1&quot; style=&quot;border-style:solid;&quot;&gt;&lt;p style=&quot;margin:0px;margin-left:4px;&quot;&gt;+ method(): Type&lt;/p&gt;" style="verticalAlign=top;align=left;overflow=fill;html=1;whiteSpace=wrap;" parent="WIyWlLk6GJQsqaUBKTNV-1" vertex="1">
          <mxGeometry x="1010" y="500" width="160" height="90" as="geometry" />
        </mxCell>
        <mxCell id="8AXX_aWarYT_waoaCrcT-37" value="Extends" style="endArrow=block;endSize=16;endFill=0;html=1;rounded=0;exitX=0.262;exitY=0.333;exitDx=0;exitDy=0;exitPerimeter=0;" parent="WIyWlLk6GJQsqaUBKTNV-1" target="8AXX_aWarYT_waoaCrcT-3" edge="1">
          <mxGeometry width="160" relative="1" as="geometry">
            <mxPoint x="359.3799999999999" y="463.3299999999999" as="sourcePoint" />
            <mxPoint x="650" y="500" as="targetPoint" />
          </mxGeometry>
        </mxCell>
        <mxCell id="8AXX_aWarYT_waoaCrcT-44" value="" style="line;strokeWidth=4;direction=south;html=1;perimeter=backbonePerimeter;points=[];outlineConnect=0;" parent="WIyWlLk6GJQsqaUBKTNV-1" vertex="1">
          <mxGeometry x="579" y="460" width="10" height="40" as="geometry" />
        </mxCell>
        <mxCell id="8AXX_aWarYT_waoaCrcT-45" value="" style="line;strokeWidth=4;direction=south;html=1;perimeter=backbonePerimeter;points=[];outlineConnect=0;" parent="WIyWlLk6GJQsqaUBKTNV-1" vertex="1">
          <mxGeometry x="850" y="460" width="10" height="40" as="geometry" />
        </mxCell>
        <mxCell id="8AXX_aWarYT_waoaCrcT-46" value="" style="line;strokeWidth=4;direction=south;html=1;perimeter=backbonePerimeter;points=[];outlineConnect=0;" parent="WIyWlLk6GJQsqaUBKTNV-1" vertex="1">
          <mxGeometry x="260" y="460" width="10" height="40" as="geometry" />
        </mxCell>
        <mxCell id="8AXX_aWarYT_waoaCrcT-47" value="" style="line;strokeWidth=4;direction=south;html=1;perimeter=backbonePerimeter;points=[];outlineConnect=0;" parent="WIyWlLk6GJQsqaUBKTNV-1" vertex="1">
          <mxGeometry x="85" y="460" width="10" height="40" as="geometry" />
        </mxCell>
        <mxCell id="8AXX_aWarYT_waoaCrcT-48" value="" style="line;strokeWidth=4;html=1;perimeter=backbonePerimeter;points=[];outlineConnect=0;" parent="WIyWlLk6GJQsqaUBKTNV-1" vertex="1">
          <mxGeometry x="85" y="460" width="775" height="10" as="geometry" />
        </mxCell>
        <mxCell id="HoxNFxqdI5XvEK4eoBQu-2" value="&lt;p style=&quot;margin:0px;margin-top:4px;text-align:center;&quot;&gt;&lt;i&gt;&amp;lt;&amp;lt;Interface&amp;gt;&amp;gt;&lt;/i&gt;&lt;br&gt;&lt;b&gt;Useable&lt;/b&gt;&lt;/p&gt;&lt;hr size=&quot;1&quot; style=&quot;border-style:solid;&quot;&gt;&lt;p style=&quot;margin:0px;margin-left:4px;&quot;&gt;&lt;br&gt;&lt;/p&gt;&lt;hr size=&quot;1&quot; style=&quot;border-style:solid;&quot;&gt;&lt;p style=&quot;margin:0px;margin-left:4px;&quot;&gt;+ use(Item): void&lt;br&gt;&lt;br&gt;&lt;/p&gt;" style="verticalAlign=top;align=left;overflow=fill;html=1;whiteSpace=wrap;" vertex="1" parent="WIyWlLk6GJQsqaUBKTNV-1">
          <mxGeometry x="504" y="780" width="190" height="140" as="geometry" />
        </mxCell>
        <mxCell id="HoxNFxqdI5XvEK4eoBQu-3" value="" style="endArrow=block;dashed=1;endFill=0;endSize=12;html=1;rounded=0;exitX=0.718;exitY=-0.02;exitDx=0;exitDy=0;exitPerimeter=0;entryX=0.188;entryY=1;entryDx=0;entryDy=0;entryPerimeter=0;" edge="1" parent="WIyWlLk6GJQsqaUBKTNV-1" source="HoxNFxqdI5XvEK4eoBQu-2" target="8AXX_aWarYT_waoaCrcT-21">
          <mxGeometry width="160" relative="1" as="geometry">
            <mxPoint x="490" y="480" as="sourcePoint" />
            <mxPoint x="650" y="480" as="targetPoint" />
          </mxGeometry>
        </mxCell>
        <mxCell id="HoxNFxqdI5XvEK4eoBQu-5" value="" style="endArrow=block;dashed=1;endFill=0;endSize=12;html=1;rounded=0;" edge="1" parent="WIyWlLk6GJQsqaUBKTNV-1" source="HoxNFxqdI5XvEK4eoBQu-2" target="8AXX_aWarYT_waoaCrcT-23">
          <mxGeometry width="160" relative="1" as="geometry">
            <mxPoint x="290" y="840" as="sourcePoint" />
            <mxPoint x="450" y="840" as="targetPoint" />
          </mxGeometry>
        </mxCell>
      </root>
    </mxGraphModel>
  </diagram>
</mxfile>
